HIERARCHY
ROOT Hips
{
	OFFSET 0.00000 0.00000 0.00000
	CHANNELS 6 Xposition Yposition Zposition Zrotation Yrotation Xrotation 
	JOINT LHipJoint
	{
		OFFSET 0 0 0
		CHANNELS 3 Zrotation Yrotation Xrotation
		JOINT LeftUpLeg
		{
			OFFSET 1.62964 -1.40469 0.78906
			CHANNELS 3 Zrotation Yrotation Xrotation
			JOINT LeftLeg
			{
				OFFSET 2.29640 -6.30932 0.00000
				CHANNELS 3 Zrotation Yrotation Xrotation
				JOINT LeftFoot
				{
					OFFSET 2.29451 -6.30412 0.00000
					CHANNELS 3 Zrotation Yrotation Xrotation
					JOINT LeftToeBase
					{
						OFFSET 0.03611 -0.09921 1.56387
						CHANNELS 3 Zrotation Yrotation Xrotation
						End Site
						{
							OFFSET 0.00000 -0.00000 0.80291
						}
					}
				}
			}
		}
	}
	JOINT RHipJoint
	{
		OFFSET 0 0 0
		CHANNELS 3 Zrotation Yrotation Xrotation
		JOINT RightUpLeg
		{
			OFFSET -1.73712 -1.40469 0.78906
			CHANNELS 3 Zrotation Yrotation Xrotation
			JOINT RightLeg
			{
				OFFSET -2.28137 -6.26801 0.00000
				CHANNELS 3 Zrotation Yrotation Xrotation
				JOINT RightFoot
				{
					OFFSET -2.28681 -6.28298 0.00000
					CHANNELS 3 Zrotation Yrotation Xrotation
					JOINT RightToeBase
					{
						OFFSET -0.15927 -0.43759 1.61103
						CHANNELS 3 Zrotation Yrotation Xrotation
						End Site
						{
							OFFSET -0.00000 -0.00000 0.84630
						}
					}
				}
			}
		}
	}
	JOINT LowerBack
	{
		OFFSET 0 0 0
		CHANNELS 3 Zrotation Yrotation Xrotation
		JOINT Spine
		{
			OFFSET -0.04227 2.04338 -0.00225
			CHANNELS 3 Zrotation Yrotation Xrotation
			JOINT Spine1
			{
				OFFSET -0.02148 2.04482 -0.04273
				CHANNELS 3 Zrotation Yrotation Xrotation
				JOINT Neck
				{
					OFFSET 0 0 0
					CHANNELS 3 Zrotation Yrotation Xrotation
					JOINT Neck1
					{
						OFFSET 0.09180 1.44629 0.19359
						CHANNELS 3 Zrotation Yrotation Xrotation
						JOINT Head
						{
							OFFSET 0.00887 1.40645 0.14750
							CHANNELS 3 Zrotation Yrotation Xrotation
							End Site
							{
								OFFSET -0.00669 1.50671 0.03707
							}
						}
					}
				}
				JOINT LeftShoulder
				{
					OFFSET 0 0 0
					CHANNELS 3 Zrotation Yrotation Xrotation
					JOINT LeftArm
					{
						OFFSET 2.17674 1.86763 -0.06520
						CHANNELS 3 Zrotation Yrotation Xrotation
						JOINT LeftForeArm
						{
							OFFSET 4.65776 -0.00000 0.00000
							CHANNELS 3 Zrotation Yrotation Xrotation
							JOINT LeftHand
							{
								OFFSET 3.55539 -0.00000 0.00000
								CHANNELS 3 Zrotation Yrotation Xrotation
								JOINT LeftFingerBase
								{
									OFFSET 0 0 0
									CHANNELS 3 Zrotation Yrotation Xrotation
									JOINT LeftHandIndex1
									{
										OFFSET 0.70726 -0.00000 0.00000
										CHANNELS 3 Zrotation Yrotation Xrotation
										End Site
										{
											OFFSET 0.57022 -0.00000 0.00000
										}
									}
								}
								JOINT LThumb
								{
									OFFSET 0 0 0
									CHANNELS 3 Zrotation Yrotation Xrotation
									End Site
									{
										OFFSET 0.57892 -0.00000 0.57892
									}
								}
							}
						}
					}
				}
				JOINT RightShoulder
				{
					OFFSET 0 0 0
					CHANNELS 3 Zrotation Yrotation Xrotation
					JOINT RightArm
					{
						OFFSET -2.80694 1.55459 -0.32496
						CHANNELS 3 Zrotation Yrotation Xrotation
						JOINT RightForeArm
						{
							OFFSET -4.71925 -0.00000 -0.00000
							CHANNELS 3 Zrotation Yrotation Xrotation
							JOINT RightHand
							{
								OFFSET -3.56990 -0.00000 0.00000
								CHANNELS 3 Zrotation Yrotation Xrotation
								JOINT RightFingerBase
								{
									OFFSET 0 0 0
									CHANNELS 3 Zrotation Yrotation Xrotation
									JOINT RightHandIndex1
									{
										OFFSET -0.50776 -0.00000 0.00000
										CHANNELS 3 Zrotation Yrotation Xrotation
										End Site
										{
											OFFSET -0.40937 -0.00000 0.00000
										}
									}
								}
								JOINT RThumb
								{
									OFFSET 0 0 0
									CHANNELS 3 Zrotation Yrotation Xrotation
									End Site
									{
										OFFSET -0.41562 -0.00000 0.41562
									}
								}
							}
						}
					}
				}
			}
		}
	}
}
MOTION
Frames: 13
Frame Time: .0083333
9.5117 16.6781 18.7704 164.7620 -3.9974 -142.0250 0.0000 0.0000 0.0000 18.1568 -25.3137 -31.8791 1.7078 8.2289 23.4114 -0.1766 12.6522 -15.5166 1.3691 -7.4052 -20.9215 0.0000 0.0000 0.0000 -16.0160 8.9151 -55.0722 -4.2058 -12.4294 37.2684 -1.8534 -3.0623 -26.9680 -5.3105 13.7251 -42.1474 -4.6725 -1.7333 -7.8151 -2.7664 -1.7723 3.8574 -0.5905 -1.1161 8.5402 -0.0979 -7.3621 0.4901 -2.1388 -10.2593 9.8724 -0.9167 -5.3300 2.9542 -0.0000 -0.0000 0.0000 -72.6035 13.9071 8.7668 11.5959 -19.1959 -1.9674 -0.0000 -0.0000 6.8857 20.2654 -14.0616 -5.1262 -7.1250 0.0000 -0.0000 -4.8969 15.0683 3.4684 -0.0000 -0.0000 0.0000 73.4193 -0.2392 29.3207 -24.9386 36.1411 -8.2536 0.0000 -0.0000 -8.4375 -5.8566 -51.8957 4.6146 7.1250 -0.0000 -0.0000 66.1555 -73.0696 -49.1612
9.5992 16.6979 18.7523 164.5920 -3.6782 -141.9410 0.0000 0.0000 0.0000 17.8271 -24.7273 -31.8865 1.6772 8.1586 23.1968 -0.4185 13.8423 -13.5300 1.5320 -7.8144 -22.1517 0.0000 0.0000 0.0000 -15.9903 9.1846 -55.2827 -4.2310 -12.4616 37.3852 -1.8608 -3.0468 -27.0120 -5.3452 13.7623 -42.2936 -4.7604 -1.7166 -7.6297 -2.8083 -1.7573 3.6627 -0.5688 -1.1067 8.2220 0.0029 -7.3652 0.4993 -2.2342 -10.2748 10.0190 -0.9680 -5.3430 2.9916 -0.0000 0.0000 0.0000 -72.9822 14.1915 8.6726 11.5205 -19.0816 -1.9427 -0.0000 -0.0000 7.0182 20.2446 -14.2730 -5.1955 -7.1250 0.0000 -0.0000 -4.9194 14.8480 3.5077 -0.0000 0.0000 0.0000 73.8775 -0.4372 28.9962 -24.9106 36.1125 -8.2371 0.0000 -0.0000 -8.5347 -6.3118 -51.1049 4.9203 7.1250 -0.0000 -0.0000 63.4610 -72.9355 -46.6284
9.6895 16.7205 18.7292 164.3840 -3.3285 -142.0050 0.0000 0.0000 0.0000 17.4559 -24.4167 -31.8651 1.6997 8.2104 23.3551 -0.4637 13.8220 -12.5117 1.2083 -6.9735 -19.6368 0.0000 0.0000 0.0000 -16.0376 9.5680 -55.2005 -4.2108 -12.4357 37.2914 -1.8666 -2.9412 -27.0046 -5.2314 13.6397 -41.8130 -4.9417 -1.7124 -8.2419 -2.8912 -1.6812 4.0393 -0.5840 -1.0962 8.9927 0.1779 -7.3642 0.4443 -2.1895 -10.2383 9.5938 -0.9671 -5.3041 2.8499 -0.0000 -0.0000 0.0000 -73.3396 13.6305 8.1522 11.3675 -18.8493 -1.8929 -0.0000 -0.0000 7.3741 19.8039 -14.2363 -5.0607 -7.1250 0.0000 -0.0000 -5.2186 14.9316 3.7134 -0.0000 -0.0000 0.0000 74.4659 0.3683 28.3027 -24.6015 35.7939 -8.0557 0.0000 -0.0000 -8.4431 -5.9626 -51.1755 4.6519 7.1250 -0.0000 -0.0000 63.8943 -72.8366 -46.8974
9.7764 16.7442 18.7090 164.3150 -3.1499 -142.1070 0.0000 0.0000 0.0000 17.3337 -24.2214 -32.0599 1.7868 8.4072 23.9578 -0.3598 12.8274 -12.4951 0.7714 -5.6082 -15.6517 0.0000 0.0000 0.0000 -15.9050 9.9809 -54.9735 -4.1519 -12.3599 37.0172 -1.8785 -2.6934 -26.9773 -4.8843 13.2523 -40.3205 -5.0103 -1.7770 -8.0642 -2.8181 -1.7781 3.9878 -0.4743 -1.1464 8.8400 -0.0002 -7.2856 0.4934 -2.0971 -10.1411 9.5928 -0.9059 -5.2609 2.8565 -0.0000 -0.0000 0.0000 -73.9062 13.7548 7.6743 11.2871 -18.7270 -1.8671 -0.0000 -0.0000 7.6578 19.5218 -14.5739 -5.0981 -7.1250 0.0000 -0.0000 -5.4230 14.6067 3.8979 -0.0000 -0.0000 0.0000 74.8362 0.4883 27.9811 -24.4340 35.6198 -7.9579 0.0000 -0.0000 -8.2511 -7.0464 -50.7880 5.4707 7.1250 -0.0000 -0.0000 62.0306 -73.0740 -45.5357
9.8576 16.7678 18.6948 164.3080 -3.0636 -142.1150 0.0000 0.0000 0.0000 17.2170 -23.7568 -32.6110 1.9270 8.7124 24.8997 -0.2595 11.9065 -12.6918 0.9839 -6.3138 -17.6977 0.0000 0.0000 0.0000 -15.7016 10.3481 -54.8509 -4.0956 -12.2866 36.7534 -1.8640 -2.6045 -26.8394 -4.6266 12.9506 -39.1837 -4.9275 -1.7856 -8.0195 -2.7730 -1.8026 3.9914 -0.4745 -1.1534 8.8167 -0.1821 -7.4064 0.1010 -1.7720 -10.3450 10.0575 -0.8176 -5.3603 3.1146 -0.0000 0.0000 0.0000 -74.2390 13.6488 7.6430 11.2014 -18.5963 -1.8396 -0.0000 -0.0000 7.9107 19.3821 -14.5622 -5.0549 -7.1250 0.0000 -0.0000 -5.5175 14.6332 3.9634 -0.0000 0.0000 0.0000 75.3138 0.5417 27.5785 -24.4558 35.6426 -7.9706 0.0000 -0.0000 -8.3085 -11.5197 -48.1214 8.6287 7.1250 -0.0000 -0.0000 50.8120 -73.4129 -36.5007
9.9323 16.7915 18.6826 164.2530 -2.9571 -142.0560 0.0000 0.0000 0.0000 16.9216 -23.1557 -33.3918 2.1098 9.0912 26.0809 -0.2192 11.6379 -12.9863 1.5191 -7.7829 -22.0565 0.0000 0.0000 0.0000 -15.4741 10.5047 -54.7716 -4.0275 -12.1970 36.4324 -1.8212 -2.6017 -26.5418 -4.6258 12.9496 -39.1801 -4.8475 -1.7908 -8.1102 -2.7699 -1.8108 4.0335 -0.5224 -1.1541 8.9131 0.1116 -7.2780 0.0908 -2.0399 -10.1366 9.8157 -0.9343 -5.2520 3.0036 0.0000 0.0000 0.0000 -74.5149 13.4673 7.8252 11.1451 -18.5103 -1.8217 -0.0000 -0.0000 8.1323 19.3757 -14.3525 -4.9823 -7.1250 0.0000 -0.0000 -5.5146 14.8531 3.9353 0.0000 0.0000 0.0000 75.8833 0.7513 26.9960 -24.3581 35.5406 -7.9137 0.0000 -0.0000 -8.3896 -15.6285 -45.3557 11.2566 7.1250 -0.0000 -0.0000 39.5327 -73.1729 -27.5019
10.0042 16.8173 18.6700 164.1990 -2.9423 -142.0970 0.0000 0.0000 0.0000 16.6104 -22.8049 -34.1655 2.3441 9.5487 27.5274 -0.1932 11.7403 -13.6678 1.4540 -7.6219 -21.5713 0.0000 0.0000 0.0000 -15.0672 10.4738 -54.4533 -3.9098 -12.0394 35.8714 -1.7679 -2.5739 -26.1564 -4.6806 13.0149 -39.4241 -4.7776 -1.8681 -8.0694 -2.7048 -1.9276 4.0464 -0.5095 -1.2078 8.9063 0.1190 -7.1876 0.0101 -2.0789 -10.0078 9.7935 -0.9480 -5.1889 3.0096 0.0000 -0.0000 0.0000 -74.9574 13.4737 7.8499 11.1696 -18.5477 -1.8295 -0.0000 -0.0000 8.1578 19.4243 -14.7175 -5.1193 -7.1250 0.0000 -0.0000 -5.4945 14.4664 3.9663 0.0000 -0.0000 0.0000 76.3941 0.9462 26.4563 -24.1406 35.3126 -7.7877 0.0000 -0.0000 -8.0961 -15.1662 -46.0452 11.0416 7.1250 -0.0000 -0.0000 41.7590 -73.4759 -29.4387
10.0750 16.8427 18.6587 164.2290 -3.0206 -142.1850 0.0000 0.0000 0.0000 16.3972 -22.5827 -35.0042 2.6533 10.1114 29.3383 -0.1701 12.1522 -14.7824 1.2040 -6.9615 -19.6013 0.0000 0.0000 0.0000 -14.5407 10.4873 -54.0943 -3.7966 -11.8848 35.3255 -1.7319 -2.5071 -25.8715 -4.6373 12.9633 -39.2314 -4.6395 -1.9219 -7.9418 -2.5823 -2.0265 4.0344 -0.4655 -1.2475 8.8199 0.0835 -7.1525 -0.0969 -2.0475 -9.9739 9.9708 -0.9439 -5.1758 3.0942 -0.0000 0.0000 0.0000 -75.3626 13.4809 8.0472 11.2168 -18.6197 -1.8445 -0.0000 -0.0000 8.0130 19.3143 -14.9472 -5.1654 -7.1250 0.0000 -0.0000 -5.5776 14.2377 4.0541 -0.0000 0.0000 0.0000 76.7658 0.9810 26.1034 -24.0604 35.2281 -7.7414 0.0000 -0.0000 -7.8698 -11.3715 -49.0401 8.6360 7.1250 -0.0000 -0.0000 53.6284 -73.8541 -39.2392
10.1423 16.8666 18.6486 164.3100 -2.9122 -142.1810 0.0000 0.0000 0.0000 16.1270 -22.2140 -35.9078 2.9939 10.6852 31.2254 -0.1872 13.0010 -15.9351 1.2840 -7.1805 -20.2514 0.0000 0.0000 0.0000 -14.1815 10.6899 -54.0085 -3.7273 -11.7885 34.9877 -1.7196 -2.3710 -25.7249 -4.5153 12.8163 -38.6846 -4.5454 -1.9106 -7.9004 -2.4709 -2.0251 3.9682 -0.3942 -1.2390 8.7234 0.1396 -7.1454 -0.0889 -2.2385 -9.9668 10.0698 -1.0161 -5.1827 3.1133 0.0000 0.0000 0.0000 -75.7615 13.3915 8.2773 11.1934 -18.5841 -1.8371 -0.0000 -0.0000 8.0747 19.1045 -14.6759 -5.0150 -7.1250 0.0000 -0.0000 -5.7101 14.5426 4.1142 0.0000 0.0000 0.0000 77.0257 0.9805 25.9395 -23.9669 35.1292 -7.6875 0.0000 -0.0000 -8.1110 -9.0148 -51.1911 7.0475 7.1250 -0.0000 -0.0000 62.0337 -73.9655 -46.5116
10.2062 16.8920 18.6380 164.3980 -2.6559 -142.1030 0.0000 0.0000 0.0000 15.8244 -21.8730 -36.8282 3.3471 11.2367 33.0825 -0.2100 13.8100 -16.9489 1.4504 -7.6127 -21.5436 0.0000 0.0000 0.0000 -13.8880 10.9163 -54.0776 -3.6627 -11.6975 34.6703 -1.6763 -2.4015 -25.4257 -4.5620 12.8729 -38.8945 -4.5227 -1.9115 -8.0313 -2.3587 -2.0206 3.9080 -0.2896 -1.2340 8.7378 0.0659 -7.1025 -0.1601 -2.4840 -9.9022 10.1523 -1.0870 -5.1680 3.1460 -0.0000 0.0000 0.0000 -76.2755 13.3401 8.4969 11.2359 -18.6489 -1.8506 -0.0000 -0.0000 8.1071 18.9070 -14.5503 -4.9182 -7.1250 0.0000 -0.0000 -5.8401 14.6935 4.1900 -0.0000 0.0000 0.0000 77.2502 1.0419 25.7619 -23.8461 35.0011 -7.6181 0.0000 -0.0000 -8.3094 -8.9565 -51.7092 7.0517 7.1250 -0.0000 -0.0000 63.7648 -74.1443 -48.2312
10.2735 16.9170 18.6273 164.5140 -2.3982 -142.0360 0.0000 0.0000 0.0000 15.5894 -21.6245 -37.7413 3.7344 11.7984 35.0224 -0.1554 14.0141 -18.0237 1.2372 -7.0535 -19.8740 0.0000 0.0000 0.0000 -13.5179 11.1524 -54.1007 -3.5843 -11.5857 34.2816 -1.6300 -2.3244 -25.0539 -4.6471 12.9750 -39.2750 -4.3056 -1.8669 -9.1623 -2.5044 -1.9004 4.4010 -0.6134 -1.1778 9.9288 0.2366 -7.0621 -0.2659 -2.2190 -9.8182 9.7098 -1.0169 -5.0927 3.0201 -0.0000 -0.0000 0.0000 -76.2244 12.5084 8.7579 11.2591 -18.6844 -1.8581 -0.0000 -0.0000 7.9870 18.8376 -14.4405 -4.8628 -7.1250 0.0000 -0.0000 -5.8839 14.8148 4.2064 -0.0000 -0.0000 0.0000 78.0098 1.8437 25.2916 -23.7470 34.8956 -7.5613 0.0000 -0.0000 -8.1249 -8.9923 -51.7661 7.0856 7.1250 -0.0000 -0.0000 63.9331 -74.1788 -48.4182
10.3411 16.9406 18.6136 164.6700 -2.1609 -142.1140 0.0000 0.0000 0.0000 15.3205 -21.4228 -38.4059 4.1133 12.3097 36.8364 -0.0459 13.7911 -19.0577 0.7978 -5.7010 -15.9194 0.0000 0.0000 0.0000 -13.0577 11.3885 -53.8488 -3.4644 -11.4114 33.6803 -1.5968 -2.0552 -24.6925 -4.5811 12.8959 -38.9801 -4.5346 -1.7967 -8.4263 -2.3200 -1.8348 3.9315 -0.2280 -1.1455 8.9910 0.1871 -6.9453 0.0268 -2.3286 -9.6939 10.0018 -1.0375 -5.0522 3.0644 0.0000 -0.0000 0.0000 -76.5986 13.0803 9.2945 11.3198 -18.7768 -1.8776 -0.0000 -0.0000 8.1300 18.8510 -14.2672 -4.8096 -7.1250 0.0000 -0.0000 -5.8694 14.9943 4.1734 0.0000 -0.0000 0.0000 78.1748 0.9240 25.1497 -23.8681 35.0245 -7.6307 0.0000 -0.0000 -8.1128 -8.3408 -51.8234 6.5745 7.1250 -0.0000 -0.0000 64.4961 -73.9573 -48.6749
10.3951 16.9681 18.6032 164.8350 -1.9703 -142.1990 0.0000 0.0000 0.0000 14.9970 -21.2910 -39.1089 4.5086 12.8080 38.6540 0.0309 13.6408 -19.7438 0.6465 -5.1437 -14.3188 0.0000 0.0000 0.0000 -12.4970 11.4070 -53.5631 -3.3289 -11.2093 32.9891 -1.5565 -1.8134 -24.2894 -4.6028 12.9220 -39.0773 -4.4533 -1.7311 -8.1462 -2.2133 -1.7769 3.7890 -0.1341 -1.1070 8.6696 0.2911 -6.8832 -0.0719 -2.5601 -9.6142 10.2223 -1.1388 -5.0250 3.1420 0.0000 0.0000 0.0000 -76.8944 13.1585 9.7654 11.3939 -18.8895 -1.9015 -0.0000 -0.0000 8.1946 18.9490 -14.3864 -4.8758 -7.1250 0.0000 -0.0000 -5.8063 14.8602 4.1447 0.0000 0.0000 0.0000 78.4218 0.5803 24.6294 -23.7366 34.8845 -7.5554 0.0000 -0.0000 -7.8175 -6.9400 -51.0143 5.4050 7.1250 -0.0000 -0.0000 62.7866 -73.1283 -46.2533
